<!--?xml version="1.0" standalone="no"?-->

<svg xmlns="http://www.w3.org/2000/svg" width="300.000000pt" height="300.000000pt" viewBox="0 0 300.000000 300.000000" preserveAspectRatio="xMidYMid meet">
<g transform="translate(0.000000,300.000000) scale(0.100000,-0.100000)" fill="#030303" stroke="none">
<path d="M470 2490 c-90 -14 -153 -59 -189 -135 -21 -44 -21 -52 -21 -855 l0
-811 25 -48 c27 -54 70 -94 122 -116 53 -22 2133 -22 2186 0 52 22 95 62 122
116 l25 48 0 679 c0 481 -3 689 -11 713 -24 72 -83 126 -169 156 -26 10 -181
13 -615 13 l-580 0 -125 125 -125 125 -300 -1 c-165 -1 -320 -5 -345 -9z
m1220 -854 c0 -213 2 -245 16 -250 9 -3 63 -6 120 -6 71 0 104 -4 104 -11 0
-11 -32 -49 -149 -179 -22 -25 -91 -104 -153 -177 -62 -72 -120 -132 -128
-132 -8 0 -66 60 -128 132 -62 73 -131 152 -153 177 -117 130 -149 168 -149
178 0 8 40 12 118 14 l117 3 3 248 2 247 190 0 190 0 0 -244z" id="node1" class="node" style="position: relative; fill: rgb(130, 126, 126);" fill="#827e7e"></path>
</g>
<g transform="translate(0.000000,300.000000) scale(0.100000,-0.100000)" fill="#ABABAB" stroke="none">

<path d="M1308 1633 l-3 -248 -117 -3 c-78 -2 -118 -6 -118 -14 0 -10 32 -48
149 -178 22 -25 91 -104 153 -177 62 -72 120 -132 128 -132 8 0 66 60 128 132
62 73 131 152 153 177 117 130 149 168 149 179 0 7 -33 11 -104 11 -57 0 -111
3 -120 6 -14 5 -16 37 -16 250 l0 244 -190 0 -190 0 -2 -247z" id="node3" class="node" style="position: relative; left: 671.667px; top: 276.333px; fill: rgb(245, 240, 240);" transform="translate(-3,0) scale(1)" fill="#f5f0f0"></path>
</g>
</svg>